<svg width="70" height="32" viewBox="0 0 44 32" fill="none" xmlns="http://www.w3.org/2000/svg">
<path d="M10.9593 0.000237593C10.9902 0.000160311 11.0211 8.3029e-05 11.0529 3.40532e-06C11.4583 -0.000225902 11.8592 0.0110529 12.2623 0.0558927C12.2819 0.0580605 12.3016 0.0602284 12.3218 0.0624619C12.5806 0.0918773 12.834 0.138597 13.0889 0.191757C13.1356 0.200596 13.1824 0.209278 13.2292 0.217743C14.073 0.371023 14.8976 0.629138 15.6818 0.977476C15.7084 0.989212 15.735 1.00095 15.7625 1.01304C16.9533 1.54094 18.021 2.24764 18.9818 3.12511C19.0068 3.14773 19.0319 3.17035 19.0577 3.19365C19.2903 3.40423 19.5185 3.6193 19.7223 3.85834C19.7732 3.91744 19.826 3.97457 19.8788 4.03196C20.0126 4.18024 20.1347 4.33654 20.2565 4.49462C20.2876 4.53467 20.3194 4.57421 20.3513 4.61368C21.7744 6.39872 22.6827 8.75996 22.9546 11.1715C22.9627 11.2434 22.9721 11.315 22.982 11.3867C23.0317 11.754 23.0594 12.1218 23.0839 12.4915C23.0855 12.516 23.0872 12.5406 23.0889 12.5658C23.1001 12.7363 23.1102 12.9069 23.1199 13.0775C23.1218 13.1093 23.1218 13.1093 23.1237 13.1418C23.1514 13.627 23.1496 14.112 23.1488 14.5978C23.1486 14.7151 23.1486 14.8324 23.1486 14.9497C23.1485 15.1708 23.1483 15.3919 23.148 15.613C23.1477 15.8652 23.1476 16.1173 23.1474 16.3695C23.1472 16.8873 23.1467 17.405 23.1461 17.9228C23.2047 17.8769 23.2633 17.8309 23.3219 17.7849C23.3384 17.772 23.3549 17.7591 23.3719 17.7458C23.4946 17.6494 23.6156 17.5513 23.7354 17.4514C23.8844 17.3279 24.0348 17.2066 24.1875 17.0877C24.3043 16.9965 24.4194 16.9034 24.5342 16.8097C24.6636 16.7041 24.7937 16.5997 24.9254 16.4971C25.0632 16.3896 25.1985 16.2795 25.333 16.168C25.4821 16.0446 25.6326 15.9233 25.7852 15.8042C25.9729 15.6576 26.1569 15.5067 26.3414 15.3561C26.5557 15.1812 26.7705 15.0069 26.9886 14.8366C27.1238 14.7307 27.257 14.6223 27.3901 14.5137C27.5017 14.4227 27.6143 14.3332 27.7278 14.2447C27.8656 14.1372 28.0009 14.0271 28.1354 13.9156C28.2844 13.7923 28.4347 13.671 28.5873 13.5521C28.7063 13.4592 28.8237 13.3644 28.9408 13.2691C28.9586 13.2546 28.9765 13.24 28.9948 13.2251C29.0689 13.1649 29.1428 13.1045 29.2165 13.0439C29.7947 12.5725 30.327 12.3395 31.0819 12.3966C31.6547 12.4785 32.1641 12.7695 32.5118 13.2314C32.7231 13.529 32.8703 13.8904 32.889 14.2561C32.8904 14.283 32.8918 14.3099 32.8932 14.3377C32.909 14.9435 32.7093 15.5108 32.2901 15.9535C32.2717 15.9724 32.2533 15.9914 32.2343 16.0109C32.2131 16.034 32.2131 16.034 32.1915 16.0577C32.069 16.1879 31.9269 16.2941 31.7858 16.4031C31.6807 16.4846 31.5777 16.5684 31.4747 16.6526C31.3454 16.7582 31.2152 16.8626 31.0835 16.9652C30.9457 17.0727 30.8105 17.1828 30.6759 17.2942C30.5269 17.4177 30.3765 17.539 30.2238 17.6579C30.107 17.7491 29.9919 17.8422 29.8771 17.9359C29.7273 18.0582 29.5764 18.1788 29.4238 18.2976C29.2492 18.4189 29.2492 18.4189 29.1176 18.5776C29.1357 18.5843 29.1538 18.5911 29.1725 18.598C29.5659 18.7632 29.918 19.0402 30.2438 19.3109C30.2702 19.3325 30.2966 19.3541 30.3239 19.3763C30.6966 19.6848 31.0482 20.0274 31.3438 20.4109C31.367 20.4391 31.3903 20.4673 31.4137 20.4953C32.3451 21.6207 32.9306 22.962 33.324 24.358C33.5702 25.2267 33.8752 26.2133 34.5458 26.8583C34.5914 26.9062 34.5914 26.9062 34.5914 26.9586C34.6141 26.9686 34.6141 26.9686 34.6371 26.9787C34.7027 27.0146 34.7485 27.0561 34.8026 27.1075C35.1378 27.4101 35.5422 27.5962 35.9795 27.6919C35.9989 27.6965 36.0182 27.7012 36.0381 27.7059C36.4791 27.805 36.9639 27.7741 37.3938 27.6395C37.4115 27.6341 37.4293 27.6286 37.4475 27.623C38.1249 27.4068 38.7234 26.9481 39.1486 26.3824C39.1777 26.3441 39.1777 26.3441 39.2074 26.3049C39.3324 26.1366 39.4441 25.9621 39.5529 25.783C39.8771 25.2513 40.2322 24.8569 40.8248 24.6276C40.8508 24.6168 40.8768 24.606 40.9037 24.5949C41.1135 24.5206 41.3141 24.5129 41.5352 24.5114C41.5636 24.5111 41.592 24.5109 41.6213 24.5106C42.1844 24.5167 42.6766 24.7717 43.0681 25.1665C43.4931 25.616 43.6181 26.1441 43.6098 26.742C43.5719 27.7612 42.684 28.8046 42.0296 29.5253C42.0147 29.5417 41.9998 29.5582 41.9845 29.5752C41.1942 30.4486 40.2209 31.0927 39.1224 31.5158C39.0999 31.5245 39.0774 31.5332 39.0543 31.5422C38.5463 31.7374 38.0114 31.8626 37.4724 31.9348C37.4434 31.9389 37.4434 31.9389 37.4138 31.943C36.8742 32.0157 36.3138 32.0223 35.7747 31.9429C35.7135 31.9342 35.6522 31.9272 35.5908 31.9203C34.4264 31.7822 33.2957 31.2781 32.3652 30.5729C32.3502 30.5616 32.3351 30.5503 32.3196 30.5387C31.8083 30.1527 31.3123 29.6953 30.9247 29.1848C30.9043 29.1593 30.8839 29.1337 30.8628 29.1074C30.5148 28.6706 30.2106 28.1836 29.9999 27.6657C29.992 27.6465 29.9841 27.6273 29.976 27.6075C29.9063 27.4288 29.8577 27.2446 29.8073 27.0597C29.5656 26.1749 29.2797 25.3099 28.908 24.4705C28.8985 24.4488 28.889 24.4272 28.8792 24.4049C28.4512 23.4392 27.7818 22.526 26.767 22.1313C26.2251 21.9338 25.5955 21.8911 25.058 22.1133C25.0327 22.1232 25.0327 22.1232 25.0069 22.1333C24.475 22.3414 24.0076 22.6713 23.5521 23.0103C23.5354 23.0227 23.5188 23.035 23.5017 23.0477C23.4702 23.0714 23.439 23.0955 23.4081 23.12C23.3732 23.1473 23.3375 23.1737 23.3012 23.1991C23.1901 23.2832 23.1901 23.2832 23.127 23.4039C23.1199 23.4741 23.1193 23.5416 23.1212 23.6121C23.1209 23.6516 23.1209 23.6516 23.1207 23.6918C23.1204 23.7785 23.1215 23.8651 23.1227 23.9518C23.1227 24.0124 23.1226 24.0729 23.1224 24.1335C23.1221 24.293 23.123 24.4524 23.1242 24.6118C23.1259 24.8664 23.126 25.121 23.1258 25.3756C23.1259 25.4641 23.1267 25.5526 23.1274 25.6411C23.1288 25.9167 23.1265 26.1701 23.0413 26.4348C23.0315 26.4667 23.0216 26.4986 23.0115 26.5315C22.78 27.1304 22.3874 27.5366 21.8052 27.8021C21.3676 27.9951 20.7771 28.0031 20.3308 27.8372C20.0726 27.7233 19.8477 27.5919 19.6366 27.4038C19.6167 27.3864 19.5968 27.369 19.5763 27.351C19.122 26.9273 18.9265 26.3184 18.9002 25.7102C18.8952 25.516 18.8959 25.3217 18.8963 25.1275C18.8962 25.0626 18.8961 24.9977 18.8961 24.9328C18.8959 24.7756 18.8961 24.6185 18.8964 24.4614C18.8966 24.3326 18.8968 24.2039 18.8968 24.0751C18.8976 22.966 18.9088 21.8571 18.9278 20.7481C18.9281 20.7308 18.9284 20.7135 18.9287 20.6957C18.9343 20.3694 18.94 20.0431 18.9458 19.7169C18.9749 18.074 18.9853 16.4311 18.9879 14.788C18.9882 14.6278 18.9887 14.4675 18.9892 14.3073C18.9899 14.1103 18.9903 13.9133 18.9903 13.7162C18.9903 13.6145 18.9904 13.5127 18.9909 13.411C18.993 12.9458 18.9748 12.4897 18.9132 12.0279C18.8998 11.9251 18.8883 11.8222 18.8768 11.7192C18.8377 11.3808 18.764 11.0511 18.6858 10.7198C18.6702 10.6534 18.6552 10.5868 18.6405 10.5202C18.3406 9.16866 17.7628 7.85051 16.8604 6.7918C16.8365 6.7631 16.8127 6.73438 16.7888 6.70565C16.5168 6.38002 16.2248 6.08559 15.8913 5.82274C15.8698 5.80438 15.8482 5.78601 15.826 5.76709C15.6083 5.58181 15.3726 5.42611 15.1318 5.27274C15.1142 5.2615 15.0966 5.25026 15.0784 5.23867C14.4269 4.82774 13.7035 4.52149 12.958 4.32988C12.9119 4.31717 12.9119 4.31717 12.865 4.3042C11.8481 4.0331 10.7751 3.99861 9.7365 4.14654C9.71428 4.14962 9.69206 4.1527 9.66917 4.15587C9.53363 4.17504 9.39931 4.19837 9.26507 4.22511C9.24551 4.22894 9.22595 4.23276 9.2058 4.2367C7.85564 4.50859 6.54791 5.14838 5.49362 6.03227C5.46577 6.05513 5.43791 6.07798 5.41003 6.10081C5.0763 6.37656 4.74383 6.67164 4.46073 6.99968C4.12997 7.37939 3.74249 7.65735 3.24122 7.76085C2.83782 7.78803 2.4355 7.80095 2.06265 7.6299C2.03277 7.61629 2.00289 7.60268 1.9721 7.58867C1.44832 7.32708 1.10388 6.89427 0.909336 6.34993C0.757362 5.85709 0.801305 5.33702 1.01993 4.87333C1.2756 4.39645 1.68298 4.02672 2.06101 3.64728C2.07385 3.63437 2.08668 3.62146 2.09991 3.60816C2.24863 3.45883 2.39947 3.31383 2.56027 3.17749C2.58671 3.15452 2.61314 3.13153 2.63956 3.10853C2.86818 2.91275 3.10512 2.72934 3.34599 2.54891C3.36309 2.53607 3.38019 2.52323 3.3978 2.51C4.05557 2.01735 4.75868 1.60644 5.49362 1.23938C5.51594 1.22812 5.53826 1.21685 5.56126 1.20525C6.26702 0.850686 7.02119 0.583979 7.7879 0.396908C7.85071 0.381521 7.91347 0.365859 7.97617 0.35C8.43008 0.235254 8.88199 0.145664 9.34692 0.088631C9.3685 0.0859678 9.39009 0.0833046 9.41233 0.0805607C9.92796 0.0180316 10.44 0.00138504 10.9593 0.000237593Z" fill="#E63F3A"/>
</svg>
