<svg width="21" height="20" viewBox="0 0 21 20" fill="none" xmlns="http://www.w3.org/2000/svg">
<path d="M10.5 18.3332C15.1024 18.3332 18.8333 14.6022 18.8333 9.99984C18.8333 5.39746 15.1024 1.6665 10.5 1.6665C5.89762 1.6665 2.16666 5.39746 2.16666 9.99984C2.16666 14.6022 5.89762 18.3332 10.5 18.3332Z" stroke="#344054" stroke-width="2" stroke-linecap="round" stroke-linejoin="round"/>
<path d="M8.41666 7.47095C8.41666 7.07321 8.41666 6.87434 8.49978 6.76332C8.57221 6.66657 8.68308 6.60603 8.80364 6.59742C8.94198 6.58754 9.10926 6.69508 9.44383 6.91016L13.3777 9.43905C13.668 9.62569 13.8131 9.719 13.8633 9.83766C13.9071 9.94134 13.9071 10.0583 13.8633 10.162C13.8131 10.2807 13.668 10.374 13.3777 10.5606L9.44383 13.0895C9.10926 13.3046 8.94198 13.4121 8.80364 13.4023C8.68308 13.3936 8.57221 13.3331 8.49978 13.2364C8.41666 13.1253 8.41666 12.9265 8.41666 12.5287V7.47095Z" stroke="#344054" stroke-width="2" stroke-linecap="round" stroke-linejoin="round"/>
</svg>
