<svg width="20" height="19" viewBox="0 0 20 19" fill="none" xmlns="http://www.w3.org/2000/svg">
<path d="M12.1868 0.601442C12.2222 0.608753 12.2222 0.608753 12.2583 0.616212C13.605 0.898677 15.4204 1.50221 16.4035 2.48717C16.4197 2.50148 16.4358 2.5158 16.4525 2.53055C16.8119 2.85715 17.011 3.39018 17.0422 3.86791C17.0566 4.25821 16.9818 4.62935 16.7964 4.97528C16.7835 5.00046 16.7706 5.02565 16.7574 5.0516C16.4783 5.56718 16.011 5.91149 15.4574 6.08674C14.9236 6.24132 14.3333 6.16448 13.8447 5.90708C13.7148 5.83554 13.5865 5.76144 13.4583 5.68713C13.291 5.5904 13.1203 5.50304 12.9461 5.41953C12.8907 5.39274 12.8357 5.36517 12.7807 5.33755C12.4441 5.17066 12.0968 5.04396 11.7416 4.9229C11.7174 4.91445 11.6933 4.90601 11.6684 4.89731C11.0668 4.68724 10.4408 4.55535 9.80346 4.53004C9.76227 4.52832 9.76227 4.52832 9.72026 4.52656C9.00346 4.5011 8.30862 4.59015 7.65583 4.89343C7.63328 4.90387 7.61073 4.91431 7.5875 4.92506C7.42791 5.00257 7.29522 5.09903 7.1582 5.21099C7.13119 5.23044 7.10418 5.24989 7.07636 5.26992C6.91088 5.42821 6.78427 5.63554 6.75562 5.86504C6.74993 6.12996 6.80898 6.36929 6.97487 6.58109C7.82419 7.44493 9.80746 7.50018 10.9506 7.66097C11.1623 7.69113 11.3734 7.7263 11.5845 7.76071C11.6581 7.77268 11.7318 7.78448 11.8054 7.79618C12.3635 7.88494 12.9192 7.98331 13.4734 8.0936C13.5002 8.09888 13.5269 8.10416 13.5545 8.10959C14.076 8.21287 14.5948 8.33102 15.1022 8.49137C15.1337 8.50129 15.1652 8.5112 15.1976 8.52142C16.3825 8.89956 17.4316 9.41098 18.3416 10.2658C18.3582 10.281 18.3749 10.2962 18.392 10.3119C18.5513 10.4628 18.6824 10.6403 18.813 10.8158C18.8242 10.8308 18.8354 10.8458 18.8469 10.8612C19.1643 11.2933 19.3843 11.7915 19.5202 12.3087C19.5284 12.34 19.5367 12.3713 19.5451 12.4035C19.7806 13.4019 19.6832 14.508 19.2845 15.4515C19.2746 15.475 19.2648 15.4984 19.2546 15.5225C19.0474 16.0045 18.7692 16.4234 18.4202 16.8134C18.3994 16.8374 18.3786 16.8614 18.3572 16.8861C18.2379 17.0221 18.1147 17.144 17.9749 17.2587C17.9622 17.2695 17.9495 17.2804 17.9364 17.2916C17.4113 17.7391 16.8105 18.0515 16.1742 18.3087C16.1374 18.3236 16.1006 18.3387 16.0639 18.354C15.5563 18.5656 15.0057 18.6827 14.4654 18.7777C14.4146 18.7868 14.4146 18.7868 14.3629 18.7961C14.0937 18.8433 13.8245 18.8787 13.5525 18.9056C13.4891 18.9119 13.4258 18.9186 13.3625 18.9254C12.6896 18.9946 12.0117 18.9922 11.336 18.9921C11.2515 18.9921 11.167 18.9923 11.0824 18.9927C10.5923 18.9947 10.108 18.9887 9.62012 18.9349C9.5858 18.9313 9.55147 18.9277 9.51611 18.9241C9.43554 18.9153 9.35514 18.9057 9.27473 18.8956C9.24919 18.8925 9.22365 18.8895 9.19734 18.8863C7.06232 18.6245 4.96573 17.8952 3.12485 16.7873C3.10055 16.7727 3.07625 16.7582 3.05122 16.7432C2.72315 16.5465 2.40939 16.3359 2.10341 16.1063C2.0791 16.0882 2.0791 16.0882 2.0543 16.0698C1.81191 15.8891 1.57833 15.6975 1.37007 15.4777C1.35842 15.4659 1.34678 15.4542 1.33478 15.442C0.906575 14.9818 0.82293 14.4034 0.841796 13.8005C0.872609 13.265 1.15245 12.769 1.53704 12.4052C1.67329 12.2868 1.815 12.1873 1.97246 12.0991C2.00401 12.0815 2.00401 12.0815 2.03619 12.0634C2.56681 11.796 3.12776 11.7754 3.68948 11.9437C4.05406 12.0647 4.32806 12.2652 4.62538 12.5002C6.05294 13.625 7.75873 14.3803 9.55465 14.6609C9.58704 14.666 9.61944 14.6711 9.65282 14.6764C9.75526 14.6916 9.85783 14.7054 9.9606 14.7182C9.97954 14.7206 9.99847 14.7231 10.018 14.7256C10.4496 14.7795 10.8819 14.78 11.3161 14.7789C11.3756 14.7788 11.4351 14.7787 11.4946 14.7786C13.3566 14.8315 13.3566 14.8315 14.9817 14.1248C15.1571 13.9362 15.1874 13.7545 15.182 13.5C15.1641 13.3268 15.1123 13.1906 14.9892 13.0682C14.9892 13.0509 14.9892 13.0336 14.9892 13.0158C14.9741 13.0087 14.9589 13.0016 14.9434 12.9943C14.8844 12.9634 14.8338 12.9281 14.78 12.8891C14.6388 12.7941 14.4899 12.74 14.3295 12.6851C14.3004 12.675 14.2713 12.6648 14.2413 12.6543C14.0382 12.5839 13.8351 12.5206 13.6273 12.4658C13.5908 12.4559 13.5544 12.446 13.5179 12.4361C13.2347 12.3597 12.9509 12.2934 12.6631 12.2366C12.6415 12.2323 12.6198 12.228 12.5975 12.2236C11.6832 12.0422 10.7605 11.9034 9.83993 11.7578C9.04726 11.6323 8.25766 11.5025 7.47849 11.3081C7.39161 11.2867 7.30456 11.2661 7.21744 11.2457C5.65153 10.874 4.13041 10.221 3.23871 8.81465C2.7987 8.09967 2.53633 7.35704 2.53883 6.5107C2.53884 6.4923 2.53886 6.47389 2.53887 6.45493C2.54428 4.90968 3.07297 3.42566 4.14628 2.30383C4.15987 2.28939 4.17347 2.27494 4.18747 2.26006C5.93374 0.410486 8.8417 0.0710354 12.1868 0.601442Z" fill="#E63F3A"/>
</svg>
