<svg width="43" height="24" viewBox="0 0 43 24" fill="none" xmlns="http://www.w3.org/2000/svg">
<path d="M41.3051 0.599273C41.3697 0.649353 41.431 0.701407 41.4918 0.75611C41.5097 0.771572 41.5276 0.787035 41.546 0.802966C41.8722 1.10361 42.1204 1.58662 42.1514 2.031C42.1535 2.10648 42.1538 2.18166 42.1531 2.25716C42.1528 2.28388 42.1526 2.31061 42.1524 2.33814C42.1422 2.9991 41.8405 3.45482 41.4298 3.95151C41.3653 4.03022 41.3024 4.11016 41.2397 4.19036C41.228 4.20527 41.2163 4.22019 41.2043 4.23556C41.1809 4.26551 41.1575 4.29546 41.1341 4.32543C41.0745 4.40166 41.0147 4.47769 40.9549 4.55375C40.9308 4.58431 40.9068 4.61486 40.8828 4.64542C40.4507 5.19542 40.4507 5.19542 40.4147 5.24123C40.3906 5.27187 40.3666 5.30251 40.3425 5.33315C40.2835 5.40827 40.2244 5.48336 40.1654 5.55841C40.0148 5.74966 39.8651 5.94156 39.7158 6.13376C39.6114 6.26808 39.5066 6.40199 39.4013 6.53565C39.3032 6.66036 39.2058 6.7856 39.1084 6.91091C38.9635 7.09747 38.8179 7.28352 38.6717 7.46915C38.6121 7.54493 38.5525 7.62079 38.4929 7.69663C38.4689 7.72718 38.4449 7.75774 38.4209 7.7883C38.409 7.80342 38.3971 7.81855 38.3849 7.83413C38.2529 8.00219 38.1208 8.17024 37.9888 8.3383C37.9769 8.35342 37.965 8.36854 37.9528 8.38412C37.9287 8.41472 37.9047 8.44532 37.8806 8.47591C37.8211 8.55157 37.7617 8.62728 37.7025 8.70313C37.5606 8.88459 37.4167 9.06415 37.271 9.2426C37.1773 9.35764 37.0849 9.47362 36.9935 9.59054C36.8921 9.72032 36.789 9.84862 36.6843 9.97583C36.6059 10.0713 36.528 10.1673 36.4501 10.2633C36.3334 10.407 36.2165 10.5506 36.0992 10.6937C36.0618 10.7393 36.0246 10.7849 35.9874 10.8306C35.869 10.9761 35.7488 11.1199 35.6273 11.2629C35.5519 11.3518 35.4776 11.4414 35.4041 11.5319C35.2758 11.6894 35.1434 11.8433 35.0108 11.9972C34.9448 12.0739 34.879 12.1507 34.8132 12.2276C34.7938 12.2502 34.7938 12.2502 34.7741 12.2732C34.7075 12.3508 34.641 12.4285 34.5747 12.5063C34.438 12.6665 34.3002 12.8252 34.1587 12.9812C34.11 13.0351 34.062 13.0895 34.0143 13.1443C33.9067 13.2678 33.7968 13.3893 33.687 13.5109C33.6477 13.5546 33.6084 13.5982 33.5691 13.6419C33.5398 13.6745 33.5398 13.6745 33.5099 13.7077C33.4716 13.7503 33.4333 13.7929 33.3951 13.8356C33.2323 14.0171 33.0671 14.1964 32.9012 14.3752C32.886 14.3917 32.8708 14.4081 32.8552 14.425C32.5243 14.7822 32.5243 14.7822 32.3554 14.9456C32.3093 14.9931 32.2668 15.0412 32.224 15.0916C32.0866 15.249 31.9376 15.395 31.7899 15.5425C31.7583 15.574 31.7268 15.6056 31.6953 15.6371C31.6295 15.703 31.5636 15.7688 31.4978 15.8345C31.4138 15.9183 31.33 16.0022 31.2462 16.0862C31.1812 16.1513 31.1161 16.2163 31.051 16.2813C31.0201 16.3122 30.9892 16.3431 30.9584 16.3741C30.8118 16.5209 30.6656 16.667 30.5072 16.8012C30.4416 16.8578 30.382 16.9192 30.3215 16.9812C30.2275 17.0765 30.1315 17.1674 30.0297 17.2543C29.9418 17.3315 29.8568 17.4118 29.7715 17.4919C29.6541 17.6019 29.5366 17.7111 29.4146 17.8159C29.3554 17.8674 29.2975 17.9203 29.2395 17.9732C29.1488 18.0551 29.0563 18.1337 28.9612 18.2105C28.8616 18.2911 28.7657 18.3742 28.6714 18.461C28.5558 18.5673 28.4367 18.6677 28.3145 18.7664C28.2333 18.8326 28.1536 18.9004 28.074 18.9684C27.9278 19.0929 27.778 19.212 27.6266 19.33C27.5283 19.4066 27.4312 19.4846 27.3341 19.5626C27.1726 19.6922 27.0094 19.8193 26.8448 19.9449C26.7951 19.9828 26.7456 20.021 26.6961 20.0591C26.4189 20.2724 26.1385 20.481 25.856 20.6872C25.8358 20.7019 25.8156 20.7167 25.7948 20.7318C25.163 21.1926 24.5153 21.6293 23.8393 22.0229C23.8216 22.0332 23.8039 22.0435 23.7857 22.0541C23.4689 22.2377 23.1442 22.4069 22.8178 22.5729C22.7844 22.59 22.7844 22.59 22.7503 22.6074C21.4336 23.2734 19.9419 23.6994 18.4663 23.7736C18.3796 23.7783 18.2931 23.785 18.2065 23.7914C16.6543 23.8949 15.0833 23.6505 13.6118 23.1589C13.5915 23.1521 13.5712 23.1454 13.5503 23.1384C12.9975 22.953 12.4724 22.7196 11.9491 22.4638C11.2886 22.141 10.6181 21.8421 9.93205 21.5777C9.91517 21.5712 9.8983 21.5646 9.88091 21.5579C8.44344 21.0057 6.78229 20.6732 5.28648 21.1881C4.82906 21.3446 4.26676 21.4073 3.80344 21.2372C3.77569 21.228 3.74794 21.2188 3.71934 21.2093C3.39913 21.0962 3.15682 20.9201 2.91296 20.6872C2.89685 20.673 2.88075 20.6589 2.86416 20.6443C2.47889 20.2927 2.2473 19.714 2.22382 19.2026C2.20504 18.5443 2.4079 17.9924 2.85894 17.5067C3.14628 17.2314 3.50512 17.026 3.83517 16.807C4.18174 16.5769 4.5263 16.3439 4.871 16.1111C5.26736 15.8434 5.26736 15.8434 5.46501 15.712C5.7212 15.5416 5.97599 15.3691 6.23098 15.197C6.77853 14.8273 6.77853 14.8273 7.01826 14.6679C7.25818 14.5076 7.49699 14.3456 7.73612 14.1842C7.9812 14.0187 8.22631 13.8533 8.47253 13.6896C8.71102 13.5308 8.94818 13.3701 9.18561 13.2098C9.73316 12.84 9.73316 12.84 9.99134 12.6683C10.2299 12.5095 10.4672 12.3487 10.7047 12.1883C11.0064 11.9846 11.3082 11.781 11.6113 11.5795C11.7036 11.5181 11.7958 11.4565 11.8881 11.395C11.9262 11.3696 11.9643 11.3442 12.0024 11.3188C12.0212 11.3062 12.0401 11.2937 12.0595 11.2807C12.2147 11.1773 12.3698 11.0739 12.5249 10.9705C12.5105 10.966 12.496 10.9616 12.4811 10.957C12.3076 10.9039 12.1341 10.8504 11.9606 10.7969C11.8798 10.772 11.7989 10.7471 11.718 10.7222C11.1301 10.5414 10.5441 10.3557 9.95988 10.1635C9.34594 9.96152 8.7307 9.76786 8.10666 9.59916C8.05929 9.58597 8.01207 9.57225 7.96491 9.55833C7.74705 9.49436 7.52898 9.44221 7.30644 9.39738C7.27344 9.39066 7.24045 9.38393 7.20645 9.377C6.72148 9.27918 6.2515 9.20954 5.75628 9.20914C5.73651 9.20912 5.71674 9.2091 5.69638 9.20908C5.39137 9.20952 5.09618 9.22079 4.79868 9.29426C4.78127 9.29847 4.76386 9.30269 4.74592 9.30703C4.2637 9.42905 3.83871 9.666 3.44813 9.96908C2.94799 10.3534 2.38808 10.5192 1.75549 10.4394C1.3793 10.377 1.02525 10.1987 0.739134 9.94902C0.71378 9.92883 0.688425 9.90864 0.662302 9.88784C0.301904 9.58712 0.0562586 9.07312 0.00579658 8.6133C-0.031769 7.9784 0.109754 7.42765 0.532883 6.9371C1.40023 6.01309 2.69481 5.44106 3.9082 5.15614C3.92616 5.15186 3.94412 5.14758 3.96263 5.14317C4.48358 5.02141 5.01337 4.98628 5.54678 4.99019C5.63674 4.99081 5.72668 4.99073 5.81664 4.99055C6.40825 4.99121 6.98417 5.04285 7.56671 5.14468C7.60603 5.15144 7.60603 5.15144 7.64614 5.15835C8.34095 5.27852 9.02401 5.43944 9.69554 5.6552C9.77097 5.67872 9.84669 5.70103 9.92257 5.72301C10.1743 5.79605 10.4237 5.87524 10.6729 5.95659C10.7147 5.97019 10.7565 5.98378 10.7983 5.99736C10.9071 6.03274 11.0159 6.06818 11.1247 6.10364C11.2988 6.16038 11.4729 6.21702 11.6471 6.27364C11.707 6.29312 11.7668 6.31264 11.8267 6.33216C13.9157 7.03906 13.9157 7.03906 16.0868 7.32996C16.1119 7.3305 16.1369 7.33103 16.1626 7.33158C16.6559 7.34071 17.1153 7.31093 17.5977 7.20883C18.224 7.07832 18.8496 7.16138 19.4049 7.49201C19.9554 7.86283 20.335 8.41766 20.4676 9.06867C20.5744 9.67652 20.4066 10.2848 20.0685 10.7937C19.7713 11.1969 19.3681 11.4595 18.9554 11.7317C18.8344 11.8115 18.7138 11.8916 18.5931 11.9717C18.5681 11.9883 18.5431 12.0049 18.5173 12.022C18.2371 12.208 17.9583 12.3961 17.6796 12.5845C17.5886 12.6459 17.4977 12.7074 17.4067 12.7688C17.3853 12.7833 17.3639 12.7978 17.3418 12.8127C17.2171 12.8968 17.0922 12.9806 16.967 13.0639C16.712 13.2334 16.4585 13.4051 16.2047 13.5764C15.6572 13.9462 15.6572 13.9462 15.399 14.1179C15.1604 14.2767 14.9232 14.4375 14.6856 14.5979C14.1381 14.9676 14.1381 14.9676 13.8799 15.1393C13.6414 15.2981 13.4041 15.4589 13.1666 15.6193C12.6191 15.989 12.6191 15.989 12.4074 16.1298C12.1516 16.2999 11.8972 16.4721 11.6426 16.644C10.7929 17.2177 10.7929 17.2177 10.6392 17.3086C10.6551 17.3113 10.671 17.3141 10.6873 17.3169C10.8516 17.3473 11.0048 17.3915 11.1614 17.4494C11.1859 17.4584 11.2105 17.4673 11.2358 17.4766C11.466 17.5627 11.689 17.6635 11.9126 17.7653C12.1176 17.8577 12.3246 17.9386 12.5364 18.0141C12.8598 18.1303 13.1683 18.2702 13.4785 18.4177C14.4028 18.8573 15.3026 19.229 16.3226 19.3777C16.3423 19.3806 16.3621 19.3836 16.3825 19.3866C16.7911 19.4477 17.1968 19.4624 17.6092 19.4628C17.6332 19.4628 17.6573 19.4629 17.6821 19.4629C18.098 19.4629 18.5035 19.4382 18.9154 19.3777C18.9442 19.3735 18.973 19.3693 19.0027 19.365C19.1659 19.3407 19.3275 19.3131 19.4884 19.2762C19.5084 19.2716 19.5285 19.267 19.5492 19.2623C19.6087 19.2486 19.668 19.2346 19.7273 19.2205C19.7582 19.2133 19.7891 19.2061 19.8209 19.1987C20.3202 19.0742 20.8091 18.8935 21.2726 18.6705C21.29 18.6622 21.3075 18.6539 21.3255 18.6453C21.9571 18.3421 22.5598 17.9827 23.1134 17.5527C23.18 17.5014 23.2478 17.4518 23.3155 17.4019C23.4956 17.2668 23.6695 17.1241 23.8436 16.9813C23.8854 16.947 23.9275 16.9129 23.9695 16.8788C24.1488 16.7333 24.3241 16.5834 24.499 16.4327C24.5463 16.3921 24.5937 16.3516 24.6412 16.3112C24.7834 16.19 24.9245 16.0682 25.0621 15.9418C25.153 15.8582 25.2457 15.7785 25.342 15.7011C25.4676 15.5999 25.5854 15.4923 25.703 15.3821C25.8134 15.2794 25.9283 15.184 26.0459 15.0897C26.1248 15.0243 26.2001 14.9557 26.275 14.886C26.3721 14.7956 26.471 14.7088 26.5746 14.6257C26.7164 14.5115 26.8491 14.389 26.9822 14.2649C27.0596 14.1926 27.1389 14.1226 27.219 14.0533C27.2803 13.9998 27.3408 13.9453 27.4012 13.8907C27.4793 13.8203 27.5576 13.7503 27.6369 13.6812C27.8399 13.5041 28.0386 13.3223 28.2369 13.14C28.2916 13.0898 28.3464 13.0397 28.4013 12.9898C28.5279 12.8744 28.653 12.7584 28.7729 12.6359C28.8181 12.5917 28.8654 12.5514 28.9137 12.5108C29.008 12.4292 29.094 12.3417 29.1789 12.2505C29.1914 12.2374 29.2039 12.2242 29.2167 12.2106C29.2882 12.1326 29.3292 12.0642 29.3655 11.9657C29.0653 11.6649 28.765 11.3641 28.4646 11.0634C28.3251 10.9238 28.1856 10.7842 28.0462 10.6445C27.9247 10.5226 27.803 10.4008 27.6814 10.2791C27.617 10.2147 27.5527 10.1503 27.4884 10.0858C27.4164 10.0136 27.3444 9.94158 27.2723 9.86952C27.2513 9.84839 27.2302 9.82725 27.2085 9.80547C27.1187 9.71579 27.0284 9.62815 26.9321 9.54544C26.7981 9.4299 26.6744 9.30407 26.5497 9.17865C26.5227 9.15156 26.4956 9.12448 26.4686 9.09741C26.4107 9.03947 26.3529 8.98149 26.2951 8.92348C26.2036 8.83159 26.1119 8.7398 26.0203 8.64802C25.8092 8.43665 25.5983 8.22515 25.3874 8.01365C25.1939 7.81967 25.0005 7.62572 24.8069 7.43188C24.7159 7.34081 24.6251 7.24967 24.5342 7.15849C24.4776 7.1016 24.4208 7.04478 24.3641 6.98797C24.3379 6.9618 24.3118 6.93561 24.2858 6.90939C24.1577 6.78065 24.0286 6.65562 23.8908 6.53733C23.7909 6.44917 23.6973 6.35443 23.6028 6.26048C23.5802 6.23806 23.5576 6.21563 23.5342 6.19252C23.4599 6.11883 23.3857 6.04504 23.3115 5.97122C23.2857 5.94558 23.2599 5.91995 23.2341 5.89431C23.1268 5.78753 23.0195 5.68071 22.9123 5.57379C22.7598 5.4217 22.607 5.26984 22.454 5.11828C22.3457 5.01105 22.2377 4.90357 22.1299 4.7959C22.0658 4.7319 22.0016 4.66801 21.9372 4.6044C21.3993 4.07279 21.0353 3.56021 21.0254 2.77443C21.0298 2.21242 21.2596 1.69539 21.6512 1.29312C22.0532 0.90063 22.5913 0.696923 23.1501 0.695371C23.4806 0.700507 23.807 0.789784 24.1012 0.939444C24.1278 0.952814 24.1543 0.966183 24.1817 0.979958C24.4915 1.15739 24.7287 1.42544 24.9732 1.68139C25.0264 1.73388 25.0793 1.78205 25.136 1.83035C25.2731 1.94988 25.4007 2.07854 25.5289 2.20744C25.5559 2.23453 25.583 2.26161 25.61 2.28868C25.6679 2.34662 25.7257 2.4046 25.7835 2.46261C25.875 2.5545 25.9666 2.64629 26.0583 2.73807C26.2693 2.94944 26.4803 3.16094 26.6912 3.37244C26.8846 3.56642 27.0781 3.76037 27.2717 3.95421C27.3626 4.04528 27.4535 4.13642 27.5443 4.2276C27.601 4.28448 27.6578 4.34131 27.7145 4.39812C27.7406 4.42429 27.7667 4.45048 27.7928 4.4767C27.9041 4.58853 28.0148 4.69975 28.1345 4.80256C28.268 4.91714 28.3907 5.04236 28.5146 5.16698C28.5416 5.19407 28.5687 5.22115 28.5957 5.24822C28.6536 5.30616 28.7114 5.36414 28.7692 5.42215C28.8607 5.51404 28.9524 5.60583 29.044 5.69761C29.2551 5.90898 29.466 6.12048 29.6769 6.33198C29.8704 6.52596 30.0638 6.71991 30.2574 6.91375C30.3484 7.00483 30.4392 7.09596 30.5301 7.18715C30.5868 7.24403 30.6435 7.30085 30.7003 7.35766C30.7264 7.38383 30.7525 7.41002 30.7785 7.43624C30.9091 7.56748 31.0407 7.69531 31.1812 7.81587C31.2348 7.86221 31.2854 7.91095 31.3354 7.96114C31.3542 7.98 31.3731 7.99886 31.3925 8.0183C31.4121 8.03797 31.4316 8.05765 31.4517 8.07793C31.4724 8.0986 31.493 8.11926 31.5143 8.14056C31.5794 8.20586 31.6445 8.27126 31.7096 8.33666C31.754 8.38126 31.7985 8.42585 31.843 8.47043C31.9513 8.57909 32.0597 8.68784 32.1679 8.79663C32.3492 8.616 32.5146 8.42458 32.6758 8.22586C32.727 8.16275 32.7786 8.10001 32.8304 8.03741C32.9878 7.84736 33.1433 7.65639 33.2948 7.46165C33.3751 7.35888 33.4581 7.25882 33.5429 7.15972C33.6798 6.99969 33.81 6.83506 33.9393 6.66884C33.998 6.59335 34.0568 6.51801 34.1158 6.44275C34.1276 6.42778 34.1393 6.41281 34.1514 6.39739C34.2446 6.27883 34.3396 6.1618 34.435 6.04498C34.5599 5.89202 34.6817 5.73716 34.8015 5.5802C34.8679 5.49331 34.9354 5.40733 35.003 5.32147C35.1149 5.17948 35.2261 5.03698 35.337 4.89423C35.4571 4.73957 35.5777 4.58526 35.6988 4.43139C35.7969 4.30668 35.8944 4.18144 35.9917 4.05613C36.1119 3.90147 36.2324 3.74716 36.3536 3.59329C36.4517 3.46858 36.5491 3.34334 36.6465 3.21803C36.7914 3.03146 36.937 2.84542 37.0832 2.65979C37.1308 2.59935 37.1783 2.53887 37.2258 2.47839C37.2499 2.4477 37.274 2.41701 37.2981 2.38634C37.3576 2.31069 37.417 2.23499 37.4762 2.15915C37.6181 1.97764 37.7621 1.79802 37.9078 1.61956C37.9884 1.52074 38.068 1.42129 38.1463 1.32072C38.1932 1.26054 38.2404 1.20063 38.2878 1.1408C38.3111 1.11122 38.3344 1.08158 38.3576 1.05187C39.0816 0.130566 40.3321 -0.0824505 41.3051 0.599273Z" fill="#E63F3A"/>
</svg>
